<svg width="164" height="253" viewBox="0 0 164 253" fill="none" xmlns="http://www.w3.org/2000/svg"><mask id="mask0_17_16998" style="mask-type:alpha" maskUnits="userSpaceOnUse" x="0" y="0" width="164" height="253"><rect y="0.229248" width="164" height="252.771" fill="#D9D9D9"/></mask><g mask="url(#mask0_17_16998)"/><mask id="mask1_17_16998" style="mask-type:alpha" maskUnits="userSpaceOnUse" x="0" y="0" width="164" height="253"><rect y="0.229248" width="164" height="252.771" fill="#D9D9D9"/></mask><g mask="url(#mask1_17_16998)"><path d="M15.9971 224.327H173.766V243.135H15.9971V224.327Z" fill="#FFB800"/><path d="M15.9971 224.327H70.4289V243.135H15.9971V224.327Z" fill="#FFB800"/><path d="M173.766 244.466C173.766 257.728 138.448 268.479 94.8816 268.479C51.3149 268.479 15.9971 257.728 15.9971 244.466C15.9971 231.203 51.3149 220.452 94.8816 220.452C138.448 220.452 173.766 231.203 173.766 244.466Z" fill="#FFB800"/><path d="M173.766 225.491C173.766 239.082 138.448 250.1 94.8816 250.1C51.3149 250.1 15.9971 239.082 15.9971 225.491C15.9971 211.9 51.3149 200.882 94.8816 200.882C138.448 200.882 173.766 211.9 173.766 225.491Z" fill="#FFD600"/><path fill-rule="evenodd" clip-rule="evenodd" d="M83.9024 204.574L34.9061 236.093C27.4496 232.828 23.064 228.833 23.064 224.519C23.064 213.822 50.0238 205.09 83.9024 204.574Z" fill="#FFF500"/><path fill-rule="evenodd" clip-rule="evenodd" d="M67.7012 245.048L127.784 206.397C141.832 208.566 153.166 212.187 159.771 216.632L113.27 246.545C108.141 246.926 102.79 247.127 97.2875 247.127C86.6965 247.127 76.6642 246.381 67.7012 245.048Z" fill="#FFF500"/><path fill-rule="evenodd" clip-rule="evenodd" d="M89.8075 225.034L79.9048 220.462C76.8759 219.064 71.9651 219.064 68.9362 220.462C65.9073 221.86 65.9073 224.128 68.9362 225.526L84.0602 232.509C85.6496 233.242 87.7571 233.591 89.839 233.555C91.9011 233.583 93.9831 233.234 95.5569 232.508L122.825 219.919C125.854 218.52 125.854 216.253 122.825 214.855C119.796 213.456 114.885 213.456 111.856 214.855L89.8075 225.034Z" fill="#FFB800"/><path d="M207.787 95.783C214.717 117.998 200.94 142.057 177.016 149.52C153.092 156.982 128.08 145.023 121.15 122.808C114.221 100.592 127.997 76.5336 151.922 69.0709C175.846 61.6083 200.858 73.5677 207.787 95.783Z" fill="#CC6BA6"/><path fill-rule="evenodd" clip-rule="evenodd" d="M119.94 117.805C116.336 97.0901 129.785 75.9762 151.922 69.0711C174.059 62.166 197.127 71.8893 205.94 90.9796C209.543 111.695 196.094 132.809 173.957 139.714C151.821 146.619 128.752 136.895 119.94 117.805Z" fill="#FF86D0"/><path d="M154.703 87.7759C155.1 85.096 158.417 84.0612 160.267 86.0402L165.579 91.722C166.335 92.5311 167.453 92.8971 168.541 92.6921L176.21 91.2477C178.95 90.7315 181.016 93.6919 179.587 96.0861L175.767 102.482C175.178 103.469 175.157 104.695 175.711 105.701L179.294 112.212C180.616 114.613 178.542 117.466 175.851 116.95L167.986 115.442C166.923 115.238 165.828 115.58 165.069 116.352L159.457 122.064C157.536 124.019 154.208 122.85 153.93 120.124L153.176 112.731C153.06 111.587 152.346 110.591 151.3 110.115L144.521 107.024C141.984 105.867 142.001 102.257 144.548 101.124L151.678 97.9522C152.69 97.5021 153.401 96.5655 153.564 95.4698L154.703 87.7759Z" fill="white"/><path d="M90.3688 77.3343C81.1873 94.7889 58.5059 100.923 39.7085 91.0352C20.9112 81.1473 13.1161 58.9819 22.2976 41.5272C31.4792 24.0725 54.1606 17.9384 72.958 27.8262C91.7553 37.7141 99.5504 59.8796 90.3688 77.3343Z" fill="#5557BF"/><path fill-rule="evenodd" clip-rule="evenodd" d="M24.551 37.839C34.8152 23.2517 55.5518 18.6696 72.9579 27.8256C90.364 36.9817 98.3362 56.6653 92.1308 73.3877C81.8666 87.975 61.13 92.5571 43.7239 83.4011C26.3177 74.245 18.3455 54.5614 24.551 37.839Z" fill="url(#paint0_linear_17_16998)"/><path opacity="0.2" d="M73.3142 39.5001C74.9407 38.9597 75.2935 36.8483 73.8505 35.9233C72.8292 35.2687 71.7668 34.6495 70.6651 34.07C54.6604 25.6512 36.442 28.7956 29.9731 41.0933C28.1824 44.4974 27.4798 48.2462 27.7395 52.0664C27.8286 53.3778 29.1615 54.1707 30.4089 53.7563L73.3142 39.5001Z" fill="#C1BBFF"/><path opacity="0.2" d="M88.8584 59.1875C88.6545 55.4671 86.6171 50.9941 84.9423 48.0491C84.3102 46.9374 82.9847 46.4726 81.7669 46.8628C67.3455 51.4836 43.227 59.1788 33.945 61.9849C32.3542 62.4658 31.4745 64.194 32.2595 65.6588C34.7521 70.3094 38.7048 73.8526 41.0422 75.4822C41.6782 75.9255 42.4775 76.0119 43.2199 75.7887C57.0922 71.6166 80.3276 63.8605 87.1781 61.4879C88.1831 61.1398 88.9166 60.2495 88.8584 59.1875Z" fill="#CE82FF"/><path d="M82.8956 58.4959C83.9199 56.5488 83.129 54.1176 81.1293 53.0657L73.0185 48.7992C67.6858 45.9941 61.1487 47.9293 58.4174 53.1215L49.5652 69.95C49.2238 70.599 49.4858 71.4275 50.1918 71.689C54.2245 73.1825 54.3481 69.5826 60.8917 73.0247C62.7117 73.9821 66.4135 75.9293 68.5208 77.0378C70.5205 78.0897 72.9708 77.3635 73.9951 75.4164L82.8956 58.4959Z" fill="#4A56CA"/><path d="M42.0522 37.0116C43.0764 35.0645 45.5279 34.3388 47.5276 35.3908L55.6384 39.6572C60.9711 42.4623 63.08 48.9455 60.3487 54.1377L51.4965 70.9662C51.1551 71.6153 50.3262 71.8644 49.6958 71.4526C45.2797 68.5683 49.2544 66.7456 42.6111 63.2511C40.7911 62.2937 37.0893 60.3464 34.982 59.238C32.9822 58.186 32.1925 55.7554 33.2167 53.8083L42.0522 37.0116Z" fill="#4A56CA"/><path d="M80.2704 51.415C81.0898 49.8574 80.4571 47.9124 78.8573 47.0709L73.0639 44.0234C68.7978 41.7793 63.5681 43.3274 61.3831 47.4812L52.4814 64.4038C52.2083 64.923 52.4173 65.5937 52.9966 65.757C55.541 66.4742 56.5132 64.124 61.6778 66.8407C63.1612 67.621 65.2775 68.7342 66.9895 69.6348C68.5893 70.4764 70.5494 69.8952 71.3688 68.3376L80.2704 51.415Z" fill="#AEB6FF"/><path d="M49.3733 35.1619C50.1927 33.6042 52.1538 33.0237 53.7536 33.8652L59.5471 36.9127C63.8132 39.1568 65.5003 44.3433 63.3153 48.4971L54.4137 65.4196C54.1405 65.9389 53.4753 66.1451 52.9942 65.7831C50.5325 63.9308 52.4421 61.982 47.1954 59.2221C45.7121 58.4418 43.5958 57.3286 41.8837 56.428C40.2839 55.5865 39.6523 53.6421 40.4717 52.0844L49.3733 35.1619Z" fill="#AEB6FF"/><path opacity="0.4" fill-rule="evenodd" clip-rule="evenodd" d="M63.7748 41.7671C64.0694 42.5961 64.2367 43.4659 64.2665 44.3449C65.0086 43.8708 65.8213 43.5156 66.6726 43.2887L54.8158 65.8291C54.5116 65.8784 54.2068 65.9094 53.8844 65.8978C53.5984 66.0111 53.2667 65.9884 52.9941 65.7833C52.9731 65.7675 52.9524 65.7517 52.932 65.7358C52.718 65.6575 52.5605 65.5064 52.4663 65.3211C52.1921 65.0385 51.9958 64.7524 51.8376 64.4603L63.7748 41.7671Z" fill="#4A56CA"/><path opacity="0.4" d="M70.7031 144.826C71.0127 144.675 70.9843 144.189 70.6596 144.074C69.4251 143.637 67.3151 142.777 66.1064 141.64C64.7732 140.385 63.687 137.96 63.1378 136.565C63.0079 136.235 62.4956 136.237 62.3685 136.568C61.8327 137.963 60.7741 140.384 59.4722 141.64C58.2445 142.824 56.1712 143.669 54.9664 144.09C54.645 144.203 54.6079 144.68 54.9094 144.838C56.1054 145.465 58.2266 146.679 59.4722 147.993C60.6663 149.253 61.8428 151.261 62.4057 152.282C62.551 152.545 62.9426 152.544 63.0853 152.279C63.6553 151.221 64.8701 149.106 66.1064 147.833C67.3313 146.572 69.4758 145.423 70.7031 144.826Z" fill="#FFC800"/><path d="M149.314 139.572C142.211 169.986 111.797 188.884 81.3833 181.782C50.9691 174.679 32.0713 144.266 39.1738 113.851C44.8774 89.428 64.7377 71.5206 87.3028 69.716C94.4438 68.9431 100.473 70.9086 105.075 73.6631C109.364 76.2447 114.055 81.0926 120.149 83.8422C126.838 86.8062 141.106 89.7778 146.927 103.204C151.749 114.132 152.411 126.308 149.314 139.572Z" fill="#58CC02"/><path d="M51.3911 90.7031C43.1099 95.2201 29.6821 107.189 38.3146 127.465L64.4127 123.701L51.3911 90.7031Z" fill="#58CC02"/><path d="M73.5389 140.595C71.9223 139.791 66.1252 136.99 64.324 136.107C62.6882 135.306 61.6083 136.43 62.0762 137.935C62.6738 139.858 63.9757 142.657 66.3412 143.828C68.9873 145.137 72.2795 144.2 73.6508 143.771C75.0222 143.342 75.4903 141.565 73.5389 140.595Z" fill="#89E219"/><path d="M87.9073 136.707C86.3302 135.828 80.671 132.758 78.9133 131.792C77.3169 130.914 76.1854 131.986 76.5822 133.512C77.0889 135.461 78.2579 138.318 80.5658 139.598C83.1475 141.031 86.4801 140.248 87.87 139.885C89.26 139.521 89.8111 137.767 87.9073 136.707Z" fill="#89E219"/><path d="M68.4576 127.227C66.8805 126.348 61.2213 123.278 59.4636 122.311C57.8672 121.434 56.7357 122.506 57.1325 124.032C57.6392 125.98 58.8082 128.837 61.1161 130.118C63.6978 131.55 67.0304 130.768 68.4203 130.404C69.8102 130.041 70.3614 128.287 68.4576 127.227Z" fill="#89E219"/><path d="M84.9589 114.771C85.4876 120.078 88.3251 130.213 100.538 133.842C111.33 137.005 124.098 136.833 132.218 110.999C132.218 110.999 141.361 107.754 141.491 104.168C141.62 100.583 134.434 99.119 134.434 99.119C134.434 99.119 140.395 95.5127 139.552 92.4917C138.709 89.4708 127.895 88.2631 121.931 87.5274C109.442 86.8234 98.5943 84.7459 93.6587 73.3295C91.2028 68.2396 90.5268 63.3028 86.9162 63.6048C83.7752 63.8676 80.2442 70.6067 80.2442 70.6067C80.2442 70.6067 81.0688 65.474 78.1261 66.2284C75.9204 66.7939 72.4747 72.6005 72.4747 72.6005C72.4747 72.6005 64.4449 78.1466 60.3126 84.1835C55.1055 91.6031 49.6718 100.714 58.4406 109.081C66.3001 116.32 76.4841 109.13 76.4841 109.13L84.9589 114.771Z" fill="#89E219"/><path d="M115.89 97.0493C121.049 98.796 126.862 105.428 124.981 113.223C124.592 114.832 124.069 116.32 123.327 117.823C113.3 113.174 104.124 109.083 93.1772 107.121C93.1772 107.121 92.5262 108.437 94.1107 105.188C94.9772 103.411 95.9597 101.826 97.0343 100.434C102.379 93.5138 109.439 94.8654 115.89 97.0493ZM81.2202 82.0093C85.7451 84.8077 85.6858 89.5431 83.1744 94.1066C81.594 96.9783 80.9223 98.4552 78.4931 99.5049C75.0164 96.2159 69.6812 91.3149 62.3393 88.418C63.7174 86.3817 65.1895 84.6716 66.7753 83.2023C67.9059 82.1545 70.3337 80.6585 71.6796 80.2977C75.723 79.214 77.9071 79.9603 81.2202 82.0093Z" fill="white"/><path fill-rule="evenodd" clip-rule="evenodd" d="M103.648 95.7461C107.589 94.6445 111.858 95.6843 115.89 97.0492C117.426 97.5694 119.021 98.5229 120.453 99.8113C116.905 107.696 104.02 109.848 98.3994 104.589C97.5266 103.772 96.9827 101.788 97.0503 100.414C98.1672 98.972 99.3588 97.8906 100.604 97.1019C101.589 96.478 102.607 96.0373 103.648 95.7461ZM77.1188 95.409C71.4185 91.8957 72.8138 84.5112 76.5507 79.9442C78.0819 80.2315 79.4987 80.9445 81.2203 82.0092C85.7452 84.8076 85.6859 89.5431 83.1745 94.1065C83.0667 94.3024 82.9631 94.4918 82.8629 94.675L82.8627 94.6755C82.5924 95.1698 82.3467 95.6191 82.109 96.0294C80.3361 96.278 78.2675 96.1169 77.1188 95.409Z" fill="#4B4B4B"/><path fill-rule="evenodd" clip-rule="evenodd" d="M81.8805 82.4543C84.1634 84.1358 85.0322 86.3954 84.8655 88.8583C84.4241 88.886 83.9706 88.8426 83.5201 88.7198C81.3224 88.1204 80.026 85.8556 80.6245 83.6611C80.7773 83.1006 81.0391 82.5988 81.3807 82.1725C81.5425 82.2649 81.7089 82.3589 81.8805 82.4543Z" fill="white"/><path fill-rule="evenodd" clip-rule="evenodd" d="M102.659 96.0718C105.255 95.0842 108.021 95.124 110.785 95.647C110.761 95.854 110.722 96.0619 110.665 96.2691C110.067 98.4635 107.8 99.7565 105.602 99.1572C104.073 98.7401 102.98 97.5168 102.659 96.0718Z" fill="white"/><path d="M124.023 132.447C124.023 132.447 99.7403 129.172 80.3341 133.637C76.787 134.505 74.529 138.176 77.2007 141.74C79.8723 145.304 100.941 165.802 103.05 164.837L124.023 132.447ZM49.4156 97.1988C49.4156 97.1988 57.9556 113.743 61.0169 124.962C61.673 127.82 59.6951 131.668 56.1181 131.989C49.2269 132.513 36.3558 128.838 36.0144 126.695" fill="#58CC02"/><path fill-rule="evenodd" clip-rule="evenodd" d="M48.8801 96.1614C49.453 95.8656 50.1572 96.0903 50.453 96.6632L49.4619 97.1749C50.453 96.6633 50.453 96.6634 50.4531 96.6636L50.4787 96.7132C50.4953 96.7456 50.5199 96.7935 50.5519 96.8562C50.616 96.9817 50.71 97.1665 50.8306 97.4053C51.0718 97.883 51.4193 98.5768 51.8455 99.4441C52.6979 101.178 53.8663 103.608 55.131 106.39C57.653 111.938 60.5865 118.95 62.1431 124.655C62.1473 124.67 62.1511 124.685 62.1547 124.701C62.5608 126.469 62.1465 128.461 61.1416 130.051C60.1246 131.659 58.4364 132.953 56.2225 133.152C56.2172 133.152 56.2119 133.153 56.2066 133.153C52.568 133.43 47.4788 132.604 43.3037 131.469C41.2052 130.898 39.2798 130.233 37.8356 129.558C37.118 129.222 36.4764 128.863 35.9843 128.487C35.5547 128.158 34.9804 127.625 34.8615 126.879C34.7601 126.242 35.194 125.644 35.8307 125.542C36.4288 125.447 36.993 125.824 37.1434 126.398C37.1699 126.43 37.2413 126.509 37.4029 126.632C37.707 126.865 38.1808 127.141 38.8255 127.443C40.106 128.042 41.8931 128.665 43.9165 129.216C47.9815 130.322 52.7688 131.071 56.0212 130.826C57.3808 130.701 58.4673 129.911 59.1682 128.803C59.8777 127.681 60.1258 126.331 59.8839 125.245C58.3775 119.735 55.5152 112.877 53.0055 107.356C51.7526 104.6 50.5947 102.192 49.7501 100.474C49.3279 99.615 48.9842 98.9287 48.7464 98.4577C48.6275 98.2223 48.5351 98.0407 48.4726 97.9183C48.4414 97.8572 48.4176 97.8108 48.4017 97.7799L48.3783 97.7343C48.3782 97.7342 48.3782 97.7342 48.9847 97.4212L48.3783 97.7343C48.0825 97.1614 48.3072 96.4571 48.8801 96.1614ZM125.18 132.602C125.093 133.241 124.506 133.69 123.867 133.603L123.866 133.603L123.852 133.601L123.802 133.595C123.757 133.589 123.689 133.58 123.6 133.569C123.421 133.547 123.155 133.514 122.808 133.474C122.114 133.394 121.099 133.285 119.818 133.167C117.257 132.932 113.64 132.664 109.42 132.534C100.966 132.275 90.1627 132.575 80.6039 134.773C79.1323 135.135 78.0017 136.061 77.4968 137.163C77.0149 138.216 77.0347 139.572 78.1348 141.04C78.7455 141.854 80.5023 143.745 82.8998 146.167C85.2722 148.563 88.2106 151.418 91.1311 154.132C94.0553 156.849 96.945 159.409 99.2243 161.223C100.369 162.134 101.329 162.833 102.049 163.27C102.413 163.491 102.673 163.618 102.839 163.678C102.846 163.681 102.853 163.683 102.859 163.685C103.366 163.6 103.887 163.861 104.112 164.351C104.38 164.937 104.122 165.63 103.536 165.899C103.213 166.046 102.898 166.05 102.677 166.027C102.449 166.003 102.233 165.942 102.045 165.874C101.668 165.738 101.257 165.52 100.838 165.266C99.9914 164.752 98.9395 163.981 97.7702 163.05C95.4224 161.181 92.4825 158.575 89.5418 155.842C86.5976 153.106 83.6359 150.229 81.2406 147.809C78.8704 145.415 76.9917 143.407 76.2665 142.44C74.695 140.343 74.5079 138.082 75.3739 136.191C76.216 134.352 77.9849 133.01 80.0567 132.503C80.059 132.503 80.0614 132.502 80.0637 132.502C80.0666 132.501 80.0694 132.5 80.0723 132.5C89.9178 130.234 100.955 129.939 109.491 130.2C113.768 130.332 117.434 130.603 120.032 130.842C121.332 130.962 122.365 131.073 123.075 131.155C123.43 131.196 123.704 131.229 123.89 131.252C123.984 131.264 124.055 131.273 124.103 131.28L124.158 131.287L124.178 131.289C124.178 131.289 124.179 131.289 124.023 132.446L124.179 131.289C124.818 131.376 125.266 131.964 125.18 132.602Z" fill="#4EB800"/><path d="M86.8361 116.534C83.8913 119.39 81.2624 120.486 77.4274 118.86C74.1403 117.467 72.8927 113.224 73.8089 110.29C75.4465 105.046 78.1535 102.281 83.9678 104.939C87.6354 106.615 90.0978 109.795 89.3653 112.022C89.0507 112.98 88.2284 115.189 86.8361 116.534Z" fill="#F49000"/><path d="M79.1481 106.691C79.4513 106.667 79.7461 106.774 79.9718 106.978C82.1711 108.964 85.2092 113.21 87.1285 115.612C87.6536 116.269 88.639 116.197 89.0019 115.438C91.3729 110.479 89.5183 104.787 85.2357 102.958C82.2035 101.664 75.2676 101.86 73.5 106.464C73.2164 107.203 73.8446 107.882 74.6167 107.709C76.027 107.393 77.6911 106.804 79.1481 106.691Z" fill="#FFC200"/><path fill-rule="evenodd" clip-rule="evenodd" d="M54.6675 114.601C57.3218 118.051 56.6762 123 53.2257 125.655C50.7493 127.56 50.0029 128.478 49.5829 129.198C49.1055 130.015 48.6243 131.304 47.9421 134.784C47.1044 139.056 42.9623 141.84 38.6904 141.002C34.4184 140.165 31.6344 136.022 32.472 131.751C33.2037 128.019 34.0717 124.499 35.9685 121.249C37.9227 117.902 40.5758 115.496 43.6139 113.159C47.0644 110.505 52.0133 111.15 54.6675 114.601Z" fill="#F49000"/><path fill-rule="evenodd" clip-rule="evenodd" d="M92.6188 137.42C96.2583 139.808 97.2725 144.695 94.8841 148.335C92.5344 151.915 91.9124 153.434 90.2489 159.534C89.1035 163.734 84.7703 166.21 80.5704 165.065C76.3705 163.919 73.8943 159.586 75.0397 155.386C76.9455 148.398 78.115 145.154 81.7041 139.685C84.0925 136.046 88.9792 135.032 92.6188 137.42Z" fill="#F49000"/></g><defs><linearGradient id="paint0_linear_17_16998" x1="111.009" y1="38.096" x2="44.2085" y2="2.95728" gradientUnits="userSpaceOnUse"><stop stop-color="#5F6DFC"/><stop offset="1" stop-color="#5C6CFC"/></linearGradient></defs></svg>